inDegrees=no
num_controls=7
num_derivatives=13
num_iterations=33
num_multipliers=7
num_parameters=0
num_slacks=7
num_states=26
objective=0.426536
objective_accelerations=0.059014
objective_balance=0.001131
objective_effort=0.015672
objective_height=0.344701
objective_ligament=0.006018
solver_duration=492.027877
status=Solve_Succeeded
success=true
DataType=double
version=3
OpenSimVersion=4.5
endheader
time	/jointset/ground_pelvis/pelvis_tilt/value	/jointset/ground_pelvis/pelvis_tx/value	/jointset/ground_pelvis/pelvis_ty/value	/jointset/hip_l/hip_flexion_l/value	/jointset/hip_l/hip_adduction_l/value	/jointset/hip_l/hip_rotation_l/value	/jointset/back/lumbar_extension/value	/jointset/patellofemoral_l/patellar_flexion_l/value	/jointset/knee_l/knee_flexion_l/value	/jointset/knee_l/knee_adduction_l/value	/jointset/knee_l/knee_rotation_l/value	/jointset/ankle_l/ankle_angle_l/value	/jointset/subtalar_l/subtalar_angle_l/value	/jointset/ground_pelvis/pelvis_tilt/speed	/jointset/ground_pelvis/pelvis_tx/speed	/jointset/ground_pelvis/pelvis_ty/speed	/jointset/hip_l/hip_flexion_l/speed	/jointset/hip_l/hip_adduction_l/speed	/jointset/hip_l/hip_rotation_l/speed	/jointset/back/lumbar_extension/speed	/jointset/patellofemoral_l/patellar_flexion_l/speed	/jointset/knee_l/knee_flexion_l/speed	/jointset/knee_l/knee_adduction_l/speed	/jointset/knee_l/knee_rotation_l/speed	/jointset/ankle_l/ankle_angle_l/speed	/jointset/subtalar_l/subtalar_angle_l/speed	/forceset/tau_hip_flexion_l	/forceset/tau_hip_adduction_l	/forceset/tau_hip_rotation_l	/forceset/tau_knee_flexion_l	/forceset/tau_ankle_angle_l	/forceset/tau_subtalar_angle_l	/forceset/tau_lumbar_extension	lambda_cid13_p0	lambda_cid13_p1	lambda_cid13_p2	lambda_cid13_p3	lambda_cid13_p4	lambda_cid13_p5	lambda_cid14_p0	/jointset/ground_pelvis/pelvis_tilt/accel	/jointset/ground_pelvis/pelvis_tx/accel	/jointset/ground_pelvis/pelvis_ty/accel	/jointset/hip_l/hip_flexion_l/accel	/jointset/hip_l/hip_adduction_l/accel	/jointset/hip_l/hip_rotation_l/accel	/jointset/back/lumbar_extension/accel	/jointset/patellofemoral_l/patellar_flexion_l/accel	/jointset/knee_l/knee_flexion_l/accel	/jointset/knee_l/knee_adduction_l/accel	/jointset/knee_l/knee_rotation_l/accel	/jointset/ankle_l/ankle_angle_l/accel	/jointset/subtalar_l/subtalar_angle_l/accel	gamma_cid13_p0	gamma_cid13_p1	gamma_cid13_p2	gamma_cid13_p3	gamma_cid13_p4	gamma_cid13_p5	gamma_cid14_p0
1	-0.4561673568629804	-0.002538682257261653	0.5912028163065716	1.712202165649078	-0.3471310165182966	0.1475123893155578	-0.436276141133243	1.516073065458962	1.516073065458971	0.05073886999442417	-0.1744888939383714	0.4350016853490419	0.248131589035805	-0.1306887721983725	0.006883329224304366	0.04768030671751547	-0.02743707829992562	-0.005048721091557581	-0.05519712919630948	-0.001202363055814922	-0.1874479463070283	-0.187447946307029	-0.02420795279896153	0.0001191814639154376	-0.04600211127782229	-0.03593027720457152	-0.2385877688567619	0.08515710768821357	-0.009621772534853964	-0.2961895480308288	-0.01011546563036179	-0.0198321052091184	0.2083269290882235	-39.8549877094765	26.87715255592224	-17.45700403070589	2.231509469310248	-543.5788422467307	-27.33900967697856	-0.02360493965812252	1.449048716151266	0.2863025280602335	2.035723543298679	-6.73989455333807	-0.2759062020368596	-1.593304987133511	-0.03440425298185345	-5.61017491462531	-5.610174914625305	-0.8877979867825952	-0.02387563124444162	-0.8071106863889609	-0.9216636611492406	-6.955059329377253e-09	-1.317116055628087e-07	-5.876702635570892e-08	-1.047811855187604e-08	-9.068514862451045e-09	-1.538707062353481e-07	2.280648503284262e-09
1.01	-0.4574025592841777	-0.002455519777373409	0.5917811678547016	1.711591979116663	-0.3471946774631281	0.1468824095359647	-0.4362887708459425	1.513918415882952	1.513918415882952	0.05045167270962773	-0.1744874156562773	0.4345012110603108	0.2477271876481791	-0.1163448312640985	0.009757118863773001	0.06797892376213642	-0.09458412797906607	-0.007674755119846136	-0.07079625864569823	-0.001306795569238483	-0.243479853307624	-0.2434798533076232	-0.03321929593992181	0.000181589693148137	-0.05411123959982483	-0.04494075686792214	-0.2389923786748367	0.08512308972119274	-0.00960907999233834	-0.2951180250942273	-0.01061542131062342	-0.01976144780496697	0.2085515236533535	-39.96134139037704	26.79757631846791	-17.36720317229481	2.15090930725594	-543.3715882999444	-27.28423484618747	-0.02362512394333858	1.428098175178964	0.2891063949397415	2.025266330135737	-6.699695976816198	-0.254630976675688	-1.542839734838723	0.00405483792532663	-5.599381815652387	-5.599381815652181	-0.9059843666572401	0.02204042321820119	-0.8155967842576946	-0.8893180355126155	-7.430737886739313e-09	-1.6451543546673e-07	-7.779769962213328e-08	-1.79418596206925e-08	-1.287631636290858e-08	-1.886410506436862e-07	2.79946619445032e-09
1.02	-0.4584941160174121	-0.002343381558480747	0.5925621726822957	1.710310804927135	-0.3472843345429321	0.146096513899675	-0.43630194136602	1.511203510592361	1.511203510592349	0.05007472561566095	-0.1744851650172496	0.4339190889125288	0.2472329658806028	-0.1019596346052772	0.01267847702518791	0.08821096261042875	-0.1616346097227735	-0.01024794808616587	-0.08638030053497497	-0.001310524544734798	-0.2994990892232509	-0.2994990892232491	-0.04215791463706371	0.0002736528508239175	-0.06233168308790186	-0.05389435319465911	-0.2393969884928883	0.08508907175416358	-0.009596387449745728	-0.2940465021576253	-0.01111537699089108	-0.01969079040083449	0.2087761182185072	-40.06961196347299	26.71537188023983	-17.27359764498129	2.05943164181997	-543.2740987639979	-27.2307620253931	-0.02364698407419436	1.457299861060709	0.2958162324494645	2.022407904032956	-6.720580966251446	-0.26533798964308	-1.590287475111096	-0.01426354539561295	-5.60764069763157	-5.607640697631645	-0.8732530980189234	-0.01794464555580525	-0.8293737196039039	-0.910286993826514	-8.337050635382209e-09	-1.963492565396952e-07	-9.121727277684511e-08	-2.496670665202514e-08	-1.698989480542243e-08	-2.149414758576794e-07	1.880915577663813e-09
1.03	-0.4594415670383333	-0.002201744005565235	0.593545068130753	1.708359765181644	-0.3473994476797933	0.1451548778403839	-0.4363144429596968	1.507928624158977	1.507928624158972	0.04960881446355109	-0.1744818872038506	0.4332541735721496	0.2466495125678183	-0.08751931733271111	0.015661764503994	0.108347416085022	-0.2285417511342676	-0.01276549815405262	-0.1019350033925173	-0.001152388641682853	-0.3554614089121608	-0.3554614089121588	-0.05101453863273203	0.0003823372113056494	-0.07067310375009878	-0.06278619410410985	-0.2397051125804019	0.08507838234707463	-0.009565618090852492	-0.2926485083634432	-0.01170906397528804	-0.01959287613807161	0.208966105666673	-40.18172610233804	26.60478155789233	-17.15579610750681	1.957423620307949	-542.8986223339843	-27.15488319032186	-0.02367534328719816	1.43908384299356	0.3014882074782321	2.006153173506799	-6.671044306546888	-0.2435664045048359	-1.536288496224792	0.03646299223203468	-5.588009507235769	-5.58800950723572	-0.8904205351916371	0.02530439309762617	-0.8397963234609905	-0.8770663541220034	-9.247757610466748e-09	-2.281731795633648e-07	-1.04579589807968e-07	-3.198707517277121e-08	-2.110659342081441e-08	-2.411554733247915e-07	9.476979373267606e-10
